<svg width="24" height="24" viewBox="0 0 24 24" fill="none" xmlns="http://www.w3.org/2000/svg">
<path d="M14.7301 20.83L17.5801 18L14.7301 15.17L16.1501 13.76L19.0001 16.57L21.8001 13.76L23.2201 15.17L20.4101 18L23.2201 20.83L21.8001 22.24L19.0001 19.4L16.1501 22.24L14.7301 20.83ZM13.0001 19.88C13.0401 20.18 12.9401 20.5 12.7101 20.71C12.3201 21.1 11.6901 21.1 11.3001 20.71L7.2901 16.7C7.0601 16.47 6.9601 16.16 7.0001 15.87V10.75L2.2101 4.62C1.8701 4.19 1.9501 3.56 2.3801 3.22C2.5701 3.08 2.7801 3 3.0001 3H17.0001C17.2201 3 17.4301 3.08 17.6201 3.22C18.0501 3.56 18.1301 4.19 17.7901 4.62L13.0001 10.75V19.88ZM5.0401 5L9.0001 10.06V15.58L11.0001 17.58V10.05L14.9601 5H5.0401Z" fill="white"/>
</svg>
